# xmcd
#
# Track frame offsets: 
#        150
#        18557
#        36282
#        56020
#        76426
#        98292
#        120336
#        135274
#        153554
#        172045
#        188114
#        201705
#        215282
#        235835
#        254180
#        272866
#        298817
#        321797
#
# Disc length: 4537 seconds
#
# Revision: 1
# Processed by: cddbd v1.5.2PL0 Copyright (c) Steve Scherf et al.
# Submitted via: ExactAudioCopy v1.1
#
DISCID=0b11b712
DTITLE=Various Artist - 輝け! 週間少年アニメ王80's
DYEAR=2005
DGENRE=Anime
TTITLE0=小比類巻かほる - City Hunter〜愛よ消えないで〜
TTITLE1=大沢誉志幸 - ゴーゴーヘブン
TTITLE2=PSY・S - Angel Night 天使のいる場所
TTITLE3=FECE OF DEFENSE - セイラ
TTITLE4=小室哲哉 - RUNNING TO HORIZON
TTITLE5=GWINKO - DOWN TOWN GAME
TTITLE6=杏里 - CAT'S EYE
TTITLE7=刀根麻理子 - デリンジャー
TTITLE8=池田政典 - NIGHT OF SUMMER SIDE
TTITLE9=中原めいこ - 鏡の中のアクトレス
TTITLE10=沖田浩之 - 燃えてヒーロー
TTITLE11=竹本孝之 - 燃えてヒーロー
TTITLE12=JETZT - So Long Dear Friend
TTITLE13=一世風靡SEPIA - 汚れちまった悲しみに…
TTITLE14=石川優子 - ドリーミー・ドリーマー
TTITLE15=NIGHT HAWKS - DON'T GO AWAY
TTITLE16=NIGHT HAWKS - SHOUT
TTITLE17=三浦秀美 - 風の戦士
EXTD=YEAR: 2005
EXTT0=
EXTT1=
EXTT2=
EXTT3=
EXTT4=
EXTT5=
EXTT6=
EXTT7=
EXTT8=
EXTT9=
EXTT10=
EXTT11=
EXTT12=
EXTT13=
EXTT14=
EXTT15=
EXTT16=
EXTT17=
PLAYORDER=
